# xmcd
#
# Track frame offsets:
#	187
#	25002
#	42280
#	73085
#	86022
#	106867
#	121325
#	132027
#	143825
#	155217
#	162980
#	170140
#
# Disc length: 2598 seconds
#
# Revision: 0
# Processed by: cddbd v1.4PL0 Copyright (c) Steve Scherf et al.
# Submitted via: dBpowerAMP V4.0
#
DISCID=a30a240c
DTITLE=Sister Rosetta Tharpe - Live at the Hot Club de France
DYEAR=1900
DGENRE=Gospel
TTITLE0=This Train [#]
TTITLE1=I'm Gonna Wait Until My Change Come [#]
TTITLE2=Jesus Met the Woman at the Well [#]
TTITLE3=He's Got the Whole World in His Hands [#]
TTITLE4=Nobody Knows the Trouble I've Seen [#]
TTITLE5=That's All [#]
TTITLE6=Walk All over God's Heaven [#]
TTITLE7=Go Ahead [#]
TTITLE8=Joshua Fit the Battle of Jericho [#]
TTITLE9=Travellin' Shoes [#]
TTITLE10=Go Tell It on the Mountain [#]
TTITLE11=Take My Hand, Precious Lord [#]
EXTD=
EXTT0=
EXTT1=
EXTT2=
EXTT3=
EXTT4=
EXTT5=
EXTT6=
EXTT7=
EXTT8=
EXTT9=
EXTT10=
EXTT11=
PLAYORDER=
